<svg width="14" height="20" viewBox="0 0 14 20" fill="none" xmlns="http://www.w3.org/2000/svg">
<path d="M13.318 9.83782C13.2592 9.59881 11.8255 3.97354 9.90838 0.349979L9.74862 0.0469484C9.7318 0.0170721 9.70657 0 9.67294 0H3.67345C3.63982 0 3.61459 0.0170721 3.59778 0.0469484L3.43801 0.349979C1.51666 3.97354 0.0830104 9.60307 0.0241507 9.83782L0.0157422 9.86769C-0.00107489 9.94025 -0.00527916 10.0128 0.00733364 10.0854V10.1152C0.709446 14.2083 3.31609 19.4195 3.4296 19.6415L3.58516 19.9531C3.59778 19.9829 3.63141 20 3.66084 20H9.67714C9.71078 20 9.74021 19.9829 9.75282 19.9531L9.90838 19.6415C10.0177 19.4195 12.6243 14.2083 13.3222 10.1152V10.0854C13.3391 10.0128 13.3349 9.94025 13.3222 9.86769L13.3138 9.83782H13.318ZM8.88674 1.32736C8.92037 1.32736 8.9498 1.34443 8.96242 1.37431C10.2826 4.01622 11.3631 7.65258 11.8213 9.29578C11.8339 9.34699 11.7961 9.39821 11.7414 9.39821C11.3631 9.39821 10.0934 9.39821 9.77804 9.39821C9.736 9.39821 9.70237 9.36833 9.69396 9.32565C9.69396 9.32565 8.44109 1.92915 8.34439 1.35723C8.34439 1.34016 8.357 1.32309 8.37382 1.32309H8.88254L8.88674 1.32736ZM4.37977 1.37431C4.39238 1.34443 4.42181 1.32736 4.45545 1.32736C4.78758 1.32736 6.5786 1.32736 6.95278 1.32736C6.99482 1.32736 7.02846 1.35723 7.03266 1.39991L8.3528 9.20188C8.37803 9.35126 8.34439 9.40248 8.18463 9.40248C7.14197 9.40248 2.38274 9.40248 1.60075 9.40248C1.54609 9.40248 1.50405 9.35126 1.52087 9.29578C1.97913 7.65258 3.05963 4.01622 4.37977 1.37431ZM6.94858 18.6812H4.46385C4.43022 18.6812 4.40499 18.6641 4.38818 18.6342C3.82481 17.452 2.19776 13.9095 1.48303 10.828C1.47042 10.7725 1.51246 10.7213 1.56712 10.7213H8.26451C8.31496 10.7213 8.357 10.7682 8.3486 10.8237L7.03266 18.6086C7.02425 18.6513 6.99062 18.6812 6.94858 18.6812ZM8.94981 18.6342C8.93719 18.6641 8.90776 18.6812 8.87833 18.6812C8.78163 18.6812 8.57142 18.6812 8.44529 18.6812C8.39064 18.6812 8.3528 18.6342 8.36121 18.5787L9.67714 10.7939C9.68555 10.7512 9.71918 10.7213 9.76123 10.7213H11.7709C11.8255 10.7213 11.8676 10.7725 11.855 10.828C11.1402 13.9095 9.51738 17.452 8.94981 18.6342Z" fill="white"/>
</svg>
