<svg width="27" height="32" viewBox="0 0 27 32" fill="none" xmlns="http://www.w3.org/2000/svg">
<path d="M18.1099 15.8378C18.052 15.5988 16.6407 9.97354 14.7536 6.34998L14.5963 6.04695C14.5797 6.01707 14.5549 6 14.5218 6H8.61606C8.58295 6 8.55812 6.01707 8.54156 6.04695L8.38429 6.34998C6.49297 9.97354 5.08171 15.6031 5.02377 15.8378L5.0155 15.8677C4.99894 15.9402 4.9948 16.0128 5.00722 16.0854V16.1152C5.69836 20.2083 8.26428 25.4195 8.37602 25.6415L8.52914 25.9531C8.54156 25.9829 8.57467 26 8.60364 26H14.5259C14.559 26 14.588 25.9829 14.6004 25.9531L14.7536 25.6415C14.8612 25.4195 17.4271 20.2083 18.1141 16.1152V16.0854C18.1306 16.0128 18.1265 15.9402 18.1141 15.8677L18.1058 15.8378H18.1099ZM13.7479 7.32736C13.781 7.32736 13.81 7.34443 13.8224 7.37431C15.1219 10.0162 16.1855 13.6526 16.6366 15.2958C16.649 15.347 16.6118 15.3982 16.558 15.3982C16.1855 15.3982 14.9357 15.3982 14.6253 15.3982C14.5839 15.3982 14.5508 15.3683 14.5425 15.3257C14.5425 15.3257 13.3092 7.92915 13.214 7.35723C13.214 7.34016 13.2264 7.32309 13.243 7.32309H13.7437L13.7479 7.32736ZM9.31134 7.37431C9.32375 7.34443 9.35272 7.32736 9.38583 7.32736C9.71278 7.32736 11.4758 7.32736 11.8441 7.32736C11.8855 7.32736 11.9186 7.35723 11.9228 7.39991L13.2223 15.2019C13.2471 15.3513 13.214 15.4025 13.0567 15.4025C12.0304 15.4025 7.34551 15.4025 6.57574 15.4025C6.52194 15.4025 6.48055 15.3513 6.49711 15.2958C6.94821 13.6526 8.01182 10.0162 9.31134 7.37431ZM11.84 24.6812H9.39411C9.361 24.6812 9.33617 24.6641 9.31961 24.6342C8.76504 23.452 7.16342 19.9095 6.45986 16.828C6.44744 16.7725 6.48883 16.7213 6.54263 16.7213H13.1354C13.185 16.7213 13.2264 16.7682 13.2181 16.8237L11.9228 24.6086C11.9145 24.6513 11.8814 24.6812 11.84 24.6812ZM13.81 24.6342C13.7975 24.6641 13.7686 24.6812 13.7396 24.6812C13.6444 24.6812 13.4375 24.6812 13.3133 24.6812C13.2595 24.6812 13.2223 24.6342 13.2306 24.5787L14.5259 16.7939C14.5342 16.7512 14.5673 16.7213 14.6087 16.7213H16.5869C16.6407 16.7213 16.6821 16.7725 16.6697 16.828C15.9662 19.9095 14.3687 23.452 13.81 24.6342Z" fill="white"/>
</svg>
