<svg width="16" height="30" viewBox="0 0 16 30" fill="none" xmlns="http://www.w3.org/2000/svg">
<path d="M13.8927 14.854C13.8406 14.6389 12.5704 9.57618 10.872 6.31498L10.7304 6.04225C10.7155 6.01536 10.6932 6 10.6634 6H5.3482C5.3184 6 5.29605 6.01536 5.28115 6.04225L5.13962 6.31498C3.43742 9.57618 2.16729 14.6428 2.11515 14.854L2.1077 14.8809C2.0928 14.9462 2.08907 15.0115 2.10025 15.0768V15.1037C2.72227 18.7875 5.0316 23.4776 5.13217 23.6773L5.26998 23.9577C5.28115 23.9846 5.31095 24 5.33703 24H10.6671C10.6969 24 10.723 23.9846 10.7341 23.9577L10.872 23.6773C10.9688 23.4776 13.2781 18.7875 13.8964 15.1037V15.0768C13.9113 15.0115 13.9076 14.9462 13.8964 14.8809L13.889 14.854H13.8927ZM9.96685 7.19462C9.99664 7.19462 10.0227 7.20999 10.0339 7.23688C11.2035 9.6146 12.1607 12.8873 12.5667 14.3662C12.5779 14.4123 12.5444 14.4584 12.4959 14.4584C12.1607 14.4584 11.0358 14.4584 10.7565 14.4584C10.7192 14.4584 10.6894 14.4315 10.682 14.3931C10.682 14.3931 9.57203 7.73624 9.48636 7.22151C9.48636 7.20615 9.49753 7.19078 9.51243 7.19078H9.96312L9.96685 7.19462ZM5.97395 7.23688C5.98513 7.20999 6.0112 7.19462 6.041 7.19462C6.33525 7.19462 7.92198 7.19462 8.25348 7.19462C8.29073 7.19462 8.32052 7.22151 8.32425 7.25992L9.49381 14.2817C9.51616 14.4161 9.48636 14.4622 9.34482 14.4622C8.42109 14.4622 4.20471 14.4622 3.51191 14.4622C3.46349 14.4622 3.42625 14.4161 3.44114 14.3662C3.84714 12.8873 4.80439 9.6146 5.97395 7.23688ZM8.24975 22.8131H6.04845C6.01865 22.8131 5.9963 22.7977 5.9814 22.7708C5.48229 21.7068 4.04082 18.5186 3.40762 15.7452C3.39645 15.6953 3.4337 15.6492 3.48212 15.6492H9.41559C9.46029 15.6492 9.49753 15.6914 9.49008 15.7414L8.32425 22.7478C8.3168 22.7862 8.287 22.8131 8.24975 22.8131ZM10.0227 22.7708C10.0115 22.7977 9.98547 22.8131 9.9594 22.8131C9.87373 22.8131 9.68749 22.8131 9.57575 22.8131C9.52733 22.8131 9.49381 22.7708 9.50126 22.7209L10.6671 15.7145C10.6745 15.6761 10.7043 15.6492 10.7416 15.6492H12.522C12.5704 15.6492 12.6077 15.6953 12.5965 15.7452C11.9633 18.5186 10.5256 21.7068 10.0227 22.7708Z" fill="white"/>
</svg>
