<svg width="18" height="18" viewBox="0 0 18 18" fill="none" xmlns="http://www.w3.org/2000/svg">
<g clip-path="url(#clip0_661_1491)">
<path d="M0.5625 2.8125C0.5625 1.56986 1.56986 0.5625 2.8125 0.5625H5.0625C5.37317 0.5625 5.625 0.81434 5.625 1.125C5.625 1.43566 5.37317 1.6875 5.0625 1.6875H2.8125C2.19118 1.6875 1.6875 2.19118 1.6875 2.8125V5.0625C1.6875 5.37317 1.43566 5.625 1.125 5.625C0.81434 5.625 0.5625 5.37317 0.5625 5.0625V2.8125ZM12.375 1.125C12.375 0.81434 12.6268 0.5625 12.9375 0.5625H15.1875C16.4301 0.5625 17.4375 1.56986 17.4375 2.8125V5.0625C17.4375 5.37317 17.1857 5.625 16.875 5.625C16.5643 5.625 16.3125 5.37317 16.3125 5.0625V2.8125C16.3125 2.19118 15.8088 1.6875 15.1875 1.6875H12.9375C12.6268 1.6875 12.375 1.43566 12.375 1.125ZM1.6875 12.9375C1.6875 12.6268 1.43566 12.375 1.125 12.375C0.81434 12.375 0.5625 12.6268 0.5625 12.9375V15.1875C0.5625 16.4301 1.56986 17.4375 2.8125 17.4375H5.0625C5.37317 17.4375 5.625 17.1857 5.625 16.875C5.625 16.5643 5.37317 16.3125 5.0625 16.3125H2.8125C2.19118 16.3125 1.6875 15.8088 1.6875 15.1875V12.9375ZM16.875 12.375C17.1857 12.375 17.4375 12.6268 17.4375 12.9375V15.1875C17.4375 16.4301 16.4301 17.4375 15.1875 17.4375H12.9375C12.6268 17.4375 12.375 17.1857 12.375 16.875C12.375 16.5643 12.6268 16.3125 12.9375 16.3125H15.1875C15.8088 16.3125 16.3125 15.8088 16.3125 15.1875V12.9375C16.3125 12.6268 16.5643 12.375 16.875 12.375Z" fill="white"/>
<path fill-rule="evenodd" clip-rule="evenodd" d="M11.25 6.75C11.25 5.50735 10.2426 4.5 9 4.5C7.75735 4.5 6.75 5.50735 6.75 6.75C6.75 7.32592 6.96639 7.85132 7.32229 8.24929C5.98672 8.87923 5.0625 10.2379 5.0625 11.8125V12.9375C5.0625 13.0867 5.12176 13.2297 5.22726 13.3352C5.33275 13.4407 5.47583 13.5 5.625 13.5H12.375C12.6857 13.5 12.9375 13.2482 12.9375 12.9375V12.375H6.1875V11.8125C6.1875 10.2592 7.44671 9 9 9C10.0135 9 10.9018 9.53612 11.3968 10.3402C11.5217 10.5431 11.7325 10.6875 11.9707 10.6875C12.3717 10.6875 12.6582 10.2989 12.4679 9.94598C12.069 9.20644 11.4404 8.60903 10.6777 8.24929C11.0336 7.85132 11.25 7.32592 11.25 6.75ZM9 5.625C9.62131 5.625 10.125 6.12869 10.125 6.75C10.125 7.37131 9.62131 7.875 9 7.875C8.37869 7.875 7.875 7.37131 7.875 6.75C7.875 6.12869 8.37869 5.625 9 5.625Z" fill="white"/>
</g>
<defs>
<clipPath id="clip0_661_1491">
<rect width="18" height="18" fill="white"/>
</clipPath>
</defs>
</svg>
